# xmcd
#
# Track frame offsets:
#	150
#	12387
#	26950
#	43017
#	55942
#	68740
#	78585
#	92637
#	106029
#	117195
#	130422
#	141577
#
# Disc length: 2113 seconds
#
# Revision: 2
# Processed by: cddbd v1.5.2PL0 Copyright (c) Steve Scherf et al.
# Submitted via: EZCDAudioConverter 7.1.8.1
#
DISCID=a7083f0c
DTITLE=TRIO PARADA DURA - CRUZ PESADA [CD 523646 2) EMI
DYEAR=1978
DGENRE=SERTANEJO
TTITLE0=CRUZ PESADA (BY GILMAR SINISTRO)
TTITLE1=SORAIA (BY GILMAR SINISTRO)
TTITLE2=O CARRO E A FACULDADE (BY GILMAR SINISTRO)
TTITLE3=ESPINHO NA CAMA (BY GILMAR SINISTRO)
TTITLE4=CONTO DO VIGÁRIO (BY GILMAR SINISTRO)
TTITLE5=SOBRADINHO AMARELO (BY GILMAR SINISTRO)
TTITLE6=INFERNO DA VIDA (BY GILMAR SINISTRO)
TTITLE7=CAMA VAZIA (BY GILMAR SINISTRO)
TTITLE8=DESPEJO DA SAUDADE (BY GILMAR SINISTRO)
TTITLE9=MÂE SOLTEIRA (BY GILMAR SINISTRO)
TTITLE10=CAMINHONEIRO (BY GILMAR SINISTRO)
TTITLE11=CASA TRISTE (BY GILMAR SINISTRO)
EXTD=
EXTT0=
EXTT1=
EXTT2=
EXTT3=
EXTT4=
EXTT5=
EXTT6=
EXTT7=
EXTT8=
EXTT9=
EXTT10=
EXTT11=
PLAYORDER=
